<?xml version="1.0" encoding="UTF-8" standalone="no"?>
<svg width="95px" height="94px" viewBox="0 0 95 94" version="1.1" xmlns="http://www.w3.org/2000/svg" xmlns:xlink="http://www.w3.org/1999/xlink">
    <!-- Generator: Sketch 39.1 (31720) - http://www.bohemiancoding.com/sketch -->
    <title>tao</title>
    <desc>Created with Sketch.</desc>
    <defs></defs>
    <g id="Page-1" stroke="none" stroke-width="1" fill="none" fill-rule="evenodd">
        <g id="tao">
            <g id="Page-1">
                <g id="noun_263649_cc">
                    <path d="M3,54.7 C3.9,59.6 8.5,69.5 6.5,63.8 C3.1,54.1 2.5,50.8 2.3,40.6 C2.1,45.7 2.1,49.5 3,54.7 L3,54.7 L3,54.7 Z" id="Shape" fill="#4990E2"></path>
                    <path d="M91,36.5 C91.1,36.7 91.1,36.9 91.2,37.1 C91.1,36.9 91,36.7 91,36.5 L91,36.5 L91,36.5 Z" id="Shape" fill="#231F20"></path>
                    <path d="M91.2,37.2 C91.3,37.6 91.5,38.1 91.6,38.5 C91.4,38 91.3,37.6 91.2,37.2 L91.2,37.2 L91.2,37.2 Z" id="Shape" fill="#231F20"></path>
                    <path d="M4.8,44.8 L4.8,45.1 C4.9,45 4.9,44.9 4.8,44.8 L4.8,44.8 L4.8,44.8 L4.8,44.8 Z" id="Shape" fill="#231F20"></path>
                    <polygon id="Shape" fill="#231F20" points="2.2 40.4 2.2 40.4 2.2 40.6 2.2 40.4"></polygon>
                    <path d="M8.7,58.1 C7.6,54.1 6.9,50.2 6.7,46.5 C6.8,50.5 7.5,54.4 8.7,58.1 L8.7,58.1 L8.7,58.1 Z" id="Shape" fill="#231F20"></path>
                    <path d="M47.2,91.2 C48.4,91.3 49.7,91.3 51,91.2 L49.2,91.2 L50.1,91.2 L51.9,91.2 C52.3,91.2 52.8,91.1 53.2,91.1 L52.1,91.1 C50.6,91.1 49.2,91.2 47.9,91.2 C46.9,91.1 46,91 45,90.9 C45.6,91 46.2,91.1 46.8,91.2 L46.4,91.2 L47,91.2 L47.2,91.2 C47.1,91.2 47.1,91.2 47.2,91.2 L47.2,91.2 L47.2,91.2 Z" id="Shape" fill="#231F20"></path>
                    <path d="M88.8,65.5 C87.5,67.5 86.7,69 85.8,70.5 C86.3,69.8 86.7,69.1 87.1,68.5 C87.8,67.6 88.3,66.6 88.8,65.5 L88.8,65.5 L88.8,65.5 Z" id="Shape" fill="#231F20"></path>
                    <path d="M60.7,89 C55.7,90.1 50.5,90.4 45.3,89.9 C50.9,90.7 56,90.4 60.7,89 L60.7,89 L60.7,89 Z" id="Shape" fill="#231F20"></path>
                    <path d="M88.2,72.1 C92.3,65.5 94.5,57.5 94,48.1 C93.5,40.3 93.4,47.9 93.3,52.4 L93.3,51.7 C93.4,48.9 93.2,46 92.7,43.2 C92.8,44.1 93,45 93.1,45.9 C93.3,47.4 93.3,48.9 93.3,50.4 C93.1,44.6 92,39 90,34.1 C90.4,34.9 90.7,35.7 91,36.5 C89.8,33 88.2,29.8 86.3,27 C81.4,19.6 73.9,14.2 63.8,11.7 C70.5,14.3 76.4,17.6 81.2,22 C88.7,30.9 92.3,39.1 92.4,48.5 C92.3,47.4 92.2,46.3 92,44.9 C90,30.8 93.1,51.2 90.6,60.9 C90.2,62.4 89.6,63.9 88.9,65.4 C89.2,64.9 89.5,64.5 89.9,64 L89.9,64 L89.9,64 L91.1,61.7 C92.2,59.6 92.8,57.1 93.2,54.4 C92.4,62.2 89.5,68.9 85,74.5 C86.8,71.9 88.4,69 89.4,65.9 L89.4,66 C89.9,65 88.9,66.3 87.4,68.6 C86.6,70 85.8,71.3 84.9,72.5 C84.8,72.6 84.7,72.8 84.5,72.9 C85.1,72.1 85.6,71.3 86,70.5 C85.3,71.5 84.6,72.6 83.8,73.6 C76.9,81 69.4,86.6 60.7,89 C63.5,88.4 66.2,87.5 68.7,86.4 C58.5,91.5 47.8,91.8 38.2,88.6 C40.5,89.2 42.9,89.6 45.3,89.9 C44,89.7 42.7,89.5 41.3,89.1 C37.1,88.1 33.3,86.6 29.9,84.8 C29.2,84.4 28.4,83.9 27.7,83.4 C22.6,79.8 17.9,75 13.9,69.4 C12.8,67.8 11.9,66 11,64.3 C6.5,53.1 6.6,39.5 10.9,26 C11.3,25.1 11.8,24.1 12.3,23.2 C12.8,22.3 14.3,20 15.9,17.8 C16.8,17.1 17.7,16.4 18.8,15.7 C18.2,15.7 17.7,15.7 17.3,15.8 L17.3,15.8 C23,14.1 23.8,14.1 20.9,13.5 C25.3,13.1 27.8,10.1 25.5,12.5 C22.1,15.9 27.4,11.8 29.3,10.3 C30.3,9.9 31.5,9.4 31.9,9 C32.1,8.8 32.3,8.7 32.4,8.5 C33.8,9.1 34.6,7.1 34.7,5.3 C36.9,0.7 34.6,-0.2 31.4,0.3 L31.4,0.3 L31.4,0.3 C30.2,0.4 29,0.7 27.9,1 C27,1.3 26.1,1.5 25.4,2 C22.4,3.9 10.5,12.8 14,12.1 C12.9,13.1 11.7,14.2 11.4,14.6 C11.5,14.5 11.6,14.4 11.7,14.4 C11,15.2 10,16.2 9.5,17 C3.7,26.3 9.2,21.4 12.2,17.3 C12.4,17.2 12.8,17.2 13.2,17 C13.3,17 13.3,17 13.4,16.9 C13.3,17 13.2,17 13.1,17.1 C9.8,20.8 5.5,28.5 3.1,34.1 C3.6,31.7 4.1,29.4 4.5,26.8 C-1.3,37.1 0.9,48.1 3.7,59.1 C1.8,51 1.4,48.7 2.2,40.4 C2.3,39 2.5,37.6 2.7,36.4 C8.3,31.3 5.4,26.6 14.3,19 C8.3,28 6,36.9 6.7,46.6 C6.4,39.9 7.7,33 10.8,26.1 C6.8,37.9 6.2,50.6 9.9,61.7 C9.4,60.5 9,59.4 8.6,58.2 C9.1,60.1 9.7,62 10.4,64 C10.1,63.5 9.9,63.1 9.6,62.6 L11.9,67.5 C12.9,69.6 14,71.6 15.3,73.4 C14.6,72.5 13.9,71.6 13.1,70.7 C15.5,74.1 17.3,76.3 19.3,78.3 C20.7,79.8 22.1,81.1 23.6,82.3 C24.3,82.9 25,83.4 25.8,84.1 C34.4,89.4 42.9,92.5 51.6,92.4 C44.8,92.8 38.1,91.5 31.2,87.9 C8.5,75.9 1.9,50.9 8.8,27.2 C5.8,37.3 4.9,41.3 6.3,51.9 C8.1,66.1 5.3,48.9 4.9,45.1 C5.5,54.9 7.8,63.1 11.3,69.7 C10.7,68.8 10.1,67.9 9.6,67.1 C6.4,60.5 4.7,53 4.7,44.8 C4.8,37.1 9,26.9 4.6,37 L4.6,37 L4.6,37 L4.6,37 L4.6,37 L4.6,37 C2.2,39.8 2.4,46.5 2.9,49.9 C4.5,62.2 9.9,70.7 14,75.6 C17.2,79.9 21,83.4 25.2,86.1 C21.7,84 18.6,81.6 15.4,78.1 C13.5,76.1 7.3,66.7 7.7,67.7 C12,80.1 24.8,89.4 37.3,92.4 C57.5,97.3 76.7,90.3 87,74.2 C87.4,73.5 87.8,72.8 88.2,72.1 L88.2,72.1 L88.2,72.1 Z M23.9,10.7 C23.7,10.9 23.4,11.1 23.1,11.2 C23.4,11 23.6,10.9 23.9,10.7 L23.9,10.7 L23.9,10.7 Z M25.8,9.1 C25.8,9 25.8,9 25.8,9.1 C25.8,9 25.8,9.1 25.8,9.1 L25.8,9.1 L25.8,9.1 L25.8,9.1 Z M21,8.3 C19.3,6.9 25,5.8 21,8.3 L21,8.3 L21,8.3 L21,8.3 Z M32.5,8.2 C34,6.9 33.2,8.1 32.5,8.2 L32.5,8.2 L32.5,8.2 L32.5,8.2 Z M81.2,76.7 C81.7,76.1 82.2,75.6 82.6,75.1 C81.1,77.1 79.7,78.8 78.7,79.7 C78.4,80 78.1,80.2 77.8,80.5 C78.3,79.8 79.4,78.6 81.2,76.7 L81.2,76.7 L81.2,76.7 Z M46.4,91.1 C41.7,90.8 37.4,89.7 33.2,87.8 C37,89.4 40.9,90.4 45,90.8 C41.3,90.2 37.6,89 34.2,87.3 C35.1,87.6 36,87.9 36.9,88.2 C41.8,90 47,91 52.1,91 L53.2,91 C53.2,91 53.2,91 53.1,91 L53.5,91 L54.3,91 C53.5,91.1 52.6,91.1 51.8,91.1 L50.9,91.1 C52.1,91.1 53.3,91 54.5,90.9 C55.6,90.9 56.5,90.8 57.3,90.8 C53.9,91.4 50.5,91.5 47.2,91.1 L47.1,91.1 C43.5,91.2 44.2,91.2 46.4,91.1 L46.4,91.1 L46.4,91.1 Z M66.3,88.8 C66.4,88.8 66.5,88.7 66.7,88.7 C66.4,88.8 66.1,88.9 65.8,89 C66,88.9 66.1,88.9 66.3,88.8 L66.3,88.8 L66.3,88.8 Z M80,81.6 C78.5,83.1 76.9,84.4 75.3,85.6 C70.4,88.9 64.5,91.2 57.7,92.1 C52.2,92.8 47,92.7 42,91.8 C55.4,94 69.8,90.3 80,81.6 L80,81.6 L80,81.6 Z M4.2,46.1 C4.2,47.3 4.3,48.6 4.5,50 C5,54.7 6,59 7.3,63 C5.1,58.3 4.1,53.5 4.2,46.1 L4.2,46.1 L4.2,46.1 Z M48,93 C57.5,93.4 67,90.9 75,85.8 C67.5,91.1 58.4,93.7 48,93 L48,93 L48,93 Z" id="Shape" fill="#4990E2"></path>
                    <path d="M92.2,41.1 C92.2,41.2 92.3,41.4 92.3,41.5 C92.3,41.3 92.3,41.2 92.2,41.1 L92.2,41.1 L92.2,41.1 Z" id="Shape" fill="#231F20"></path>
                    <path d="M92.3,41.5 C92.4,42.1 92.5,42.6 92.6,43.2 C92.6,42.6 92.4,42 92.3,41.5 L92.3,41.5 L92.3,41.5 Z" id="Shape" fill="#231F20"></path>
                    <path d="M91.6,38.5 C91.8,39.4 92.1,40.2 92.3,41.1 C92,40.2 91.8,39.3 91.6,38.5 L91.6,38.5 L91.6,38.5 Z" id="Shape" fill="#231F20"></path>
                </g>
            </g>
        </g>
    </g>
</svg>